<svg xmlns="http://www.w3.org/2000/svg" viewBox="0 0 512 512" role="img" aria-label="chibi dog avatar">
  <defs>
    <radialGradient id="bg" cx="30%" cy="25%" r="85%">
      <stop offset="0%" stop-color="#fff7fd" />
      <stop offset="60%" stop-color="#f1f7ff" />
      <stop offset="100%" stop-color="#e9f3ff" />
    </radialGradient>
    <radialGradient id="fur" cx="35%" cy="30%" r="70%">
      <stop offset="0%" stop-color="#fff4df" />
      <stop offset="70%" stop-color="#ffe2b5" />
      <stop offset="100%" stop-color="#f3c788" />
    </radialGradient>
    <filter id="shadow" x="-20%" y="-20%" width="140%" height="140%">
      <feDropShadow dx="0" dy="10" stdDeviation="10" flood-color="rgba(0,0,0,0.18)" />
    </filter>
  </defs>

  <g filter="url(#shadow)">
    <rect width="512" height="512" fill="url(#bg)" />

    <circle cx="256" cy="288" r="170" fill="url(#fur)" />
    <ellipse cx="170" cy="212" rx="70" ry="92" fill="#f3c788" transform="rotate(-18 170 212)" />
    <ellipse cx="342" cy="212" rx="70" ry="92" fill="#f3c788" transform="rotate(18 342 212)" />
    <ellipse cx="168" cy="220" rx="48" ry="64" fill="url(#fur)" transform="rotate(-18 168 220)" />
    <ellipse cx="344" cy="220" rx="48" ry="64" fill="url(#fur)" transform="rotate(18 344 220)" />

    <ellipse cx="256" cy="316" rx="126" ry="104" fill="#fff7ea" opacity="0.92" />

    <circle cx="206" cy="268" r="16" fill="#2a1a22" />
    <circle cx="200" cy="262" r="5" fill="#ffffff" opacity="0.9" />
    <circle cx="306" cy="268" r="16" fill="#2a1a22" />
    <circle cx="300" cy="262" r="5" fill="#ffffff" opacity="0.9" />

    <path
      d="M252 300c10 8 20 8 30 0"
      fill="none"
      stroke="#d9a07a"
      stroke-width="10"
      stroke-linecap="round"
    />

    <path
      d="M236 340c14 12 40 12 54 0"
      fill="none"
      stroke="#b24866"
      stroke-width="12"
      stroke-linecap="round"
    />

    <path
      d="M256 312c18 0 34 18 0 30c-34-12-18-30 0-30Z"
      fill="#2a1a22"
    />

    <ellipse cx="170" cy="332" rx="26" ry="16" fill="#ff7ea9" opacity="0.32" />
    <ellipse cx="342" cy="332" rx="26" ry="16" fill="#ff7ea9" opacity="0.32" />

    <path
      d="M132 420c40 34 92 44 124 44s84-10 124-44"
      fill="none"
      stroke="rgba(255,255,255,0.75)"
      stroke-width="12"
      stroke-linecap="round"
    />
  </g>

  <circle cx="256" cy="256" r="240" fill="none" stroke="rgba(255,255,255,0.92)" stroke-width="18" />
</svg>
